# xmcd
#
# Track frame offsets:
#	150
#	20214
#	44146
#	85846
#	102771
#	129863
#	156350
#	182028
#	224853
#	249706
#	277051
#	295846
#	314848
#	328851
#
# Disc length: 4612 seconds
#
# Revision: 81234573
# Processed by: cddbd v1.5.1PL0 Copyright (c) Steve Scherf et al.
# Submitted via: EasyCDDAExtractor 8.0.2.1
#
DISCID=e512020e
DTITLE=Various Artist - Blues Paradise vol.21
DYEAR=2000
DGENRE=Blues
TTITLE0=Long John Baldry - Right To Sing The Blues
TTITLE1=Vargas Blues Band and Chris Rea - Do Tou Believe In Love
TTITLE2=The Hoax - Bones
TTITLE3=Jimmy Spacek - Big Legged Woman
TTITLE4=Julian Sas - Is This What They Call The Blues
TTITLE5=Bobby Mack - Heart Of Lonely Man
TTITLE6=Blues Underground - The Thrill Is Gone
TTITLE7=Dave Meniketti - Load Me A Dime
TTITLE8=Popa Chubby - White Devil
TTITLE9=Peter Garstenauer - Feels Like Years
TTITLE10=Jon Tiven Group - Midnight Again
TTITLE11=Sunset Heights - Sally Jo
TTITLE12=Eddy Cebalos - Bumble Be
TTITLE13=Rick Vito - I Loved Another Woman
EXTD=YEAR: 2002
EXTT0=
EXTT1=
EXTT2=
EXTT3=
EXTT4=
EXTT5=
EXTT6=
EXTT7=
EXTT8=
EXTT9=
EXTT10=
EXTT11=
EXTT12=
EXTT13=
PLAYORDER=
